<svg width="32" height="32" viewBox="0 0 32 32" fill="none" xmlns="http://www.w3.org/2000/svg">
<path d="M29.3332 16C29.3332 8.63616 23.3636 2.66663 15.9998 2.66663C8.63604 2.66663 2.6665 8.63616 2.6665 16C2.6665 23.3638 8.63604 29.3333 15.9998 29.3333C23.3636 29.3333 29.3332 23.3638 29.3332 16Z" fill="#0052FF"/>
<path d="M16.0034 20.6875C13.4136 20.6875 11.3159 18.5898 11.3159 16C11.3159 13.4102 13.4136 11.3125 16.0034 11.3125C18.3238 11.3125 20.2495 13.0039 20.6206 15.2188H25.3433C24.9449 10.4062 20.9175 6.625 16.0034 6.625C10.8276 6.625 6.62842 10.8242 6.62842 16C6.62842 21.1758 10.8276 25.375 16.0034 25.375C20.9175 25.375 24.9449 21.5938 25.3433 16.7812H20.6167C20.2456 18.9961 18.3238 20.6875 16.0034 20.6875Z" fill="white"/>
</svg>
