<svg width="32" height="32" viewBox="0 0 32 32" fill="none" xmlns="http://www.w3.org/2000/svg">
<g clip-path="url(#clip0_301_2166)">
<path d="M32 16C32 19.1645 31.0616 22.2579 29.3035 24.8891C27.5454 27.5203 25.0466 29.5711 22.1229 30.7821C19.1993 31.9931 15.9823 32.3099 12.8786 31.6926C9.77487 31.0752 6.92394 29.5514 4.6863 27.3137C2.44866 25.0761 0.924806 22.2251 0.307443 19.1214C-0.309921 16.0177 0.00693248 12.8007 1.21793 9.87707C2.42894 6.95345 4.4797 4.45459 7.11088 2.69649C9.74207 0.938384 12.8355 0 16 0C20.2435 0 24.3131 1.68571 27.3137 4.68629C30.3143 7.68687 32 11.7565 32 16Z" fill="#F7931A"/>
<path fill-rule="evenodd" clip-rule="evenodd" d="M11.3715 7.30621L15.0486 8.29093L15.8704 5.22766L17.7089 5.72657L16.9191 8.6633L18.4187 9.06621L19.21 6.09748L21.0806 6.59784L20.2747 9.58257C20.2747 9.58257 23.3293 10.2589 24.0478 12.7433C24.7664 15.2277 22.4682 16.5324 21.7584 16.5818C21.7584 16.5818 24.4347 18.0495 23.5155 20.9368C22.5962 23.824 19.7744 24.3404 16.8057 23.6786L15.9998 26.7738L14.1293 26.2735L14.9511 23.2262L13.4675 22.8218L12.6457 25.8909L10.7897 25.392L11.6129 22.3375L7.83838 21.3193L8.78965 19.2073C8.78965 19.2073 9.85438 19.4982 10.2573 19.5942C10.6602 19.6902 10.9191 19.2713 11.0326 18.8524C11.146 18.4335 12.8551 11.4909 13.0166 10.9193C13.178 10.3477 13.1126 9.90112 12.4347 9.72512C11.7569 9.54912 10.8347 9.27421 10.8347 9.27421L11.3715 7.30621ZM15.0806 16.5004L14.0624 20.5484C14.0624 20.5484 19.1111 22.3709 19.7569 19.8066C20.4027 17.2422 15.0806 16.5004 15.0806 16.5004ZM15.5489 14.5804L16.5482 10.8713C16.5482 10.8713 20.8711 11.6451 20.3387 13.7091C19.8064 15.7731 17.258 14.9818 15.5489 14.5804Z" fill="white"/>
</g>
<defs>
<clipPath id="clip0_301_2166">
<rect width="32" height="32" fill="white"/>
</clipPath>
</defs>
</svg>
