<svg width="32" height="32" viewBox="0 0 32 32" fill="none" xmlns="http://www.w3.org/2000/svg">
<g clip-path="url(#clip0_301_505)">
<path d="M16 31.9999C19.1646 31.9999 22.258 31.0616 24.8892 29.3035C27.5204 27.5454 29.5711 25.0465 30.7821 22.1229C31.9931 19.1993 32.31 15.9822 31.6926 12.8785C31.0753 9.77481 29.5514 6.92388 27.3138 4.68624C25.0761 2.4486 22.2252 0.924745 19.1215 0.307382C16.0178 -0.309982 12.8007 0.00687145 9.87711 1.21787C6.9535 2.42888 4.45464 4.47964 2.69654 7.11082C0.938432 9.74201 4.84406e-05 12.8354 4.84406e-05 15.9999C-0.00513159 18.1026 0.405185 20.1855 1.20743 22.129C2.00967 24.0726 3.18802 25.8384 4.67479 27.3252C6.16156 28.812 7.92744 29.9903 9.87099 30.7926C11.8145 31.5948 13.8974 32.0051 16 31.9999Z" fill="#2775CA"/>
<path d="M20.4002 18.5338C20.4002 16.2065 19.0009 15.3993 16.2009 15.0662C14.1995 14.8 13.8009 14.2662 13.8009 13.3338C13.8009 12.4014 14.4671 11.7993 15.7995 11.7993C17.0009 11.7993 17.6671 12.1993 18.0002 13.2C18.036 13.2964 18.1005 13.3795 18.185 13.438C18.2696 13.4966 18.3701 13.5277 18.4729 13.5273H19.5391C19.6009 13.5289 19.6623 13.5179 19.7197 13.495C19.777 13.4721 19.8291 13.4377 19.8728 13.3941C19.9165 13.3504 19.9508 13.2983 19.9737 13.2409C19.9966 13.1835 20.0076 13.1221 20.006 13.0604V12.9949C19.8772 12.2723 19.5134 11.6125 18.971 11.118C18.4286 10.6236 17.7381 10.322 17.0067 10.2604V8.66035C17.0067 8.39417 16.806 8.1949 16.4729 8.12799H15.4722C15.206 8.12799 15.0067 8.32726 14.9398 8.66035V10.1993C12.934 10.4727 11.6671 11.7993 11.6671 13.4662C11.6671 15.6669 13.0009 16.5338 15.8009 16.8669C17.6671 17.2 18.2737 17.5942 18.2737 18.6662C18.2737 19.7382 17.3413 20.4669 16.0744 20.4669C14.3406 20.4669 13.7471 19.7396 13.5406 18.7331C13.5215 18.6206 13.4636 18.5184 13.377 18.4443C13.2903 18.3701 13.1804 18.3287 13.0664 18.3273H11.9275C11.8658 18.3259 11.8044 18.337 11.7472 18.36C11.6899 18.3829 11.6379 18.4173 11.5942 18.4609C11.5506 18.5046 11.5162 18.5566 11.4933 18.6139C11.4703 18.6711 11.4592 18.7325 11.4606 18.7942V18.8611C11.7282 20.528 12.7944 21.728 14.9951 22.0611V23.6611C14.9951 23.9273 15.1944 24.128 15.5275 24.1949H16.5282C16.7944 24.1949 16.9951 23.9942 17.0606 23.6611V22.0611C19.0606 21.728 20.3944 20.3273 20.3944 18.528L20.4002 18.5338Z" fill="white"/>
<path d="M12.5994 25.5331C10.6812 24.8295 9.02526 23.5539 7.85541 21.8788C6.68557 20.2036 6.05825 18.2097 6.05825 16.1665C6.05825 14.1233 6.68557 12.1294 7.85541 10.4543C9.02526 8.77913 10.6812 7.50356 12.5994 6.79998C12.7274 6.74462 12.8349 6.65065 12.9069 6.53121C12.9789 6.41177 13.0117 6.27283 13.0009 6.1338V5.19998C13.0099 5.07749 12.9741 4.9559 12.9003 4.85774C12.8265 4.75959 12.7196 4.69152 12.5994 4.66616C12.5056 4.65637 12.4113 4.68007 12.3333 4.73307C9.90622 5.50449 7.78762 7.02822 6.28412 9.08372C4.78062 11.1392 3.97021 13.6198 3.97021 16.1665C3.97021 18.7132 4.78062 21.1938 6.28412 23.2493C7.78762 25.3048 9.90622 26.8286 12.3333 27.6C12.3887 27.6322 12.451 27.6508 12.515 27.6543C12.579 27.6578 12.6429 27.6461 12.7015 27.6201C12.7601 27.5941 12.8117 27.5546 12.8521 27.5049C12.8926 27.4551 12.9206 27.3965 12.934 27.3338C13.0009 27.2669 13.0009 27.2 13.0009 27.0662V26.1338C13.0009 25.9331 12.8002 25.6669 12.5994 25.5331ZM19.6671 4.73307C19.6115 4.70087 19.5492 4.6823 19.4851 4.67889C19.421 4.67547 19.357 4.68732 19.2983 4.71344C19.2397 4.73956 19.1881 4.77922 19.1478 4.82916C19.1075 4.87909 19.0795 4.93789 19.0663 5.00071C19.0009 5.06616 19.0009 5.13307 19.0009 5.26689V6.19925C19.0121 6.3337 19.054 6.46379 19.1234 6.57952C19.1927 6.69526 19.2876 6.79356 19.4009 6.86689C21.3191 7.57047 22.9751 8.84604 24.1449 10.5212C25.3148 12.1963 25.9421 14.1902 25.9421 16.2334C25.9421 18.2766 25.3148 20.2705 24.1449 21.9457C22.9751 23.6208 21.3191 24.8964 19.4009 25.6C19.273 25.6554 19.1657 25.7494 19.094 25.8689C19.0223 25.9883 18.9897 26.1273 19.0009 26.2662V27.2C18.9919 27.3223 19.0274 27.4437 19.1009 27.5418C19.1744 27.6399 19.281 27.7081 19.4009 27.7338C19.4947 27.7436 19.589 27.7199 19.6671 27.6669C22.0932 26.8848 24.2087 25.3534 25.7094 23.2929C27.2101 21.2324 28.0186 18.749 28.0186 16.2C28.0186 13.6509 27.2101 11.1676 25.7094 9.10707C24.2087 7.04658 22.0932 5.51516 19.6671 4.73307Z" fill="white"/>
</g>
<defs>
<clipPath id="clip0_301_505">
<rect width="32" height="32" fill="white"/>
</clipPath>
</defs>
</svg>
